<?xml version="1.0" encoding="UTF-8"?>
<svg width="16px" height="16px" viewBox="0 0 16 16" version="1.1" xmlns="http://www.w3.org/2000/svg" xmlns:xlink="http://www.w3.org/1999/xlink">
    <title>编组 7</title>
    <g id="首页" stroke="none" stroke-width="1" fill="none" fill-rule="evenodd">
        <g id="PC端样式效果初" transform="translate(-602.000000, -54.000000)">
            <g id="webhead" transform="translate(502.000000, 40.000000)">
                <g id="编组-7" transform="translate(100.000000, 14.000000)">
                    <rect id="矩形" fill-opacity="0" fill="#D8D8D8" x="0" y="0" width="16" height="16"></rect>
                    <path d="M14.9999716,2.00001848 L14.9999716,11.9999972 L10.9999797,16 L1.00002843,16 L6.99998781,10.0000185 L6.99998781,14.0000185 L8.99995532,11.9999972 L8.99995532,8.00005118 L10.9999797,6.00001848 L10.9999797,11.9999972 L13.0000041,10.0000185 L13.0000041,3.99999147 L14.9999716,2.00001848 Z M15,0 L8.99998375,6.0000327 L8.99998375,1.99997299 L6.99995938,4 L6.99995938,8.00006256 L5,10.0000355 L5,4 L3.00002437,6.0000327 L3.00002437,12 L1,14.0000384 L1,4 L5,0 L15,0 Z" id="形状结合" fill="#9BFF2B"></path>
                </g>
            </g>
        </g>
    </g>
</svg>